<?xml version="1.0" encoding="UTF-8" standalone="no"?>
<svg
   xmlns:dc="http://purl.org/dc/elements/1.1/"
   xmlns:cc="http://creativecommons.org/ns#"
   xmlns:rdf="http://www.w3.org/1999/02/22-rdf-syntax-ns#"
   xmlns:svg="http://www.w3.org/2000/svg"
   xmlns="http://www.w3.org/2000/svg"
   xmlns:sodipodi="http://sodipodi.sourceforge.net/DTD/sodipodi-0.dtd"
   xmlns:inkscape="http://www.inkscape.org/namespaces/inkscape"
   enable-background="new 0 0 128 128"
   height="128px"
   id="Layer_1"
   version="1.1"
   viewBox="0 0 128 128"
   width="128px"
   xml:space="preserve"
   inkscape:version="0.91 r13725"
   sodipodi:docname="1468306218_City.svg"
   inkscape:export-filename="D:\Websites\travel-forecast\misc\hotel-24.png"
   inkscape:export-xdpi="16.875"
   inkscape:export-ydpi="16.875"><metadata
     id="metadata15"><rdf:RDF><cc:Work
         rdf:about=""><dc:format>image/svg+xml</dc:format><dc:type
           rdf:resource="http://purl.org/dc/dcmitype/StillImage" /></cc:Work></rdf:RDF></metadata><defs
     id="defs13" /><sodipodi:namedview
     pagecolor="#ffffff"
     bordercolor="#666666"
     borderopacity="1"
     objecttolerance="10"
     gridtolerance="10"
     guidetolerance="10"
     inkscape:pageopacity="0"
     inkscape:pageshadow="2"
     inkscape:window-width="2560"
     inkscape:window-height="1377"
     id="namedview11"
     showgrid="false"
     inkscape:zoom="5.2149125"
     inkscape:cx="77.091452"
     inkscape:cy="56.305173"
     inkscape:window-x="2552"
     inkscape:window-y="-8"
     inkscape:window-maximized="1"
     inkscape:current-layer="Layer_1" /><g
     id="g3"
     style="fill:#000000"><g
       id="g5"
       style="fill:#000000"><path
         d="M20,48h8v-8h-8V48z M52,40h8v-8h-8V40z M68,40h8v-8h-8V40z M84,40h8v-8h-8V40z M52,24h8v-8h-8V24z M68,24    h8v-8h-8V24z M84,24h8v-8h-8V24z M52,72h8v-8h-8V72z M68,72h8v-8h-8V72z M84,72h8v-8h-8V72z M52,88h8v-8h-8V88z M84,88h8v-8h-8V88    z M52,104h8v-8h-8V104z M84,104h8v-8h-8V104z M108,96h8v-8h-8V96z M108,72v8h8v-8H108z M108,112h8v-8h-8V112z M52,56h8v-8h-8V56z     M68,56h8v-8h-8V56z M84,56h8v-8h-8V56z M20,64h8v-8h-8V64z M20,80h8v-8h-8V80z M20,96h8v-8h-8V96z M20,112h8v-8h-8V112z M68,88h8    v-8h-8V88z"
         fill="#B0BEC5"
         id="path7"
         style="fill:#000000" /></g></g><path
     clip-rule="evenodd"
     d="M124,120c0,4.422-3.578,8-8,8H12c-4.422,0-8-3.578-8-8V32  c0-4.422,3.578-8,8-8h24V8c0-4.422,3.578-8,8-8h56c4.422,0,8,3.578,8,8v48h8c4.422,0,8,3.578,8,8V120z M36,32H12v88h24V32z M100,8  H44v112h24V96h8v24h24V8z M116,64h-8v56h8V64z"
     fill="#546E7A"
     fill-rule="evenodd"
     id="path9"
     style="fill:#000000" /></svg>