<?xml version="1.0" encoding="utf-8"?>
<!-- Generator: Adobe Illustrator 16.0.0, SVG Export Plug-In . SVG Version: 6.00 Build 0)  -->
<!DOCTYPE svg PUBLIC "-//W3C//DTD SVG 1.1//EN" "http://www.w3.org/Graphics/SVG/1.1/DTD/svg11.dtd">
<svg version="1.1" id="Layer_1" xmlns="http://www.w3.org/2000/svg" xmlns:xlink="http://www.w3.org/1999/xlink" x="0px" y="0px"
	 width="512px" height="512px" viewBox="0 0 512 512" enable-background="new 0 0 512 512" xml:space="preserve">
<path d="M256.672,96c70.719,0,128,57.313,128,128c0,6.219-0.969,12.188-1.844,18.156c5.781-1.313,11.688-2.156,17.844-2.156
	c44.188,0,80,35.813,80,80s-35.813,80-80,80c-29.125,0-54.375-15.75-68.375-39.031C321.766,392.844,292.078,416,256.672,416
	c-35.375,0-65.063-23.156-75.625-55.031c-14,23.281-39.219,39.031-68.375,39.031c-44.188,0-80-35.813-80-80s35.813-80,80-80
	c6.156,0,12.063,0.844,17.813,2.156c-0.844-5.969-1.813-11.938-1.813-18.156C128.672,153.313,185.984,96,256.672,96 M256.672,64
	c-83.188,0-151.75,63.813-159.313,145.063C42.828,216.531,0.672,263.438,0.672,320c0,61.75,50.25,112,112,112
	c22.875,0,44.563-6.875,62.719-19.281C196.047,434.75,225.172,448,256.672,448c31.531,0,60.656-13.25,81.281-35.281
	C356.141,425.125,377.797,432,400.672,432c61.75,0,112-50.25,112-112c0-56.563-42.156-103.469-96.688-110.938
	C408.422,127.813,339.859,64,256.672,64L256.672,64z"/>
</svg>
