<?xml version="1.0" encoding="UTF-8" standalone="no"?>
<!-- Created with Inkscape (http://www.inkscape.org/) -->

<svg
   xmlns:dc="http://purl.org/dc/elements/1.1/"
   xmlns:cc="http://creativecommons.org/ns#"
   xmlns:rdf="http://www.w3.org/1999/02/22-rdf-syntax-ns#"
   xmlns:svg="http://www.w3.org/2000/svg"
   xmlns="http://www.w3.org/2000/svg"
   xmlns:sodipodi="http://sodipodi.sourceforge.net/DTD/sodipodi-0.dtd"
   xmlns:inkscape="http://www.inkscape.org/namespaces/inkscape"
   width="128"
   height="128"
   viewBox="0 0 128 128"
   id="svg2"
   version="1.1"
   inkscape:version="0.91 r13725"
   sodipodi:docname="logo-colored.svg"
   inkscape:export-filename="D:\Websites\travel-forecast\misc\logo-colored-bg-256.png"
   inkscape:export-xdpi="180"
   inkscape:export-ydpi="180">
  <defs
     id="defs4" />
  <sodipodi:namedview
     id="base"
     pagecolor="#ffffff"
     bordercolor="#666666"
     borderopacity="1.0"
     inkscape:pageopacity="0.0"
     inkscape:pageshadow="2"
     inkscape:zoom="2.8"
     inkscape:cx="197.78718"
     inkscape:cy="73.589166"
     inkscape:document-units="px"
     inkscape:current-layer="layer1"
     showgrid="false"
     units="px"
     showborder="true"
     inkscape:showpageshadow="false"
     inkscape:window-width="2560"
     inkscape:window-height="1377"
     inkscape:window-x="2552"
     inkscape:window-y="-8"
     inkscape:window-maximized="1"
     borderlayer="true" />
  <metadata
     id="metadata7">
    <rdf:RDF>
      <cc:Work
         rdf:about="">
        <dc:format>image/svg+xml</dc:format>
        <dc:type
           rdf:resource="http://purl.org/dc/dcmitype/StillImage" />
        <dc:title></dc:title>
      </cc:Work>
    </rdf:RDF>
  </metadata>
  <g
     inkscape:label="Layer 1"
     inkscape:groupmode="layer"
     id="layer1"
     transform="translate(0,-924.36216)">
    <rect
       style="color:#000000;clip-rule:nonzero;display:inline;overflow:visible;visibility:visible;opacity:1;isolation:auto;mix-blend-mode:normal;color-interpolation:sRGB;color-interpolation-filters:linearRGB;solid-color:#000000;solid-opacity:1;fill:#ffffff;fill-opacity:1;fill-rule:nonzero;stroke:#c4c4c4;stroke-width:5.19999981;stroke-linecap:round;stroke-linejoin:miter;stroke-miterlimit:4;stroke-dasharray:none;stroke-dashoffset:0;stroke-opacity:1;color-rendering:auto;image-rendering:auto;shape-rendering:auto;text-rendering:auto;enable-background:accumulate"
       id="rect4142"
       width="165"
       height="146.42857"
       x="-15.35714"
       y="916.64795"
       ry="0" />
    <path
       style="fill:#b5b5b5;fill-opacity:1;fill-rule:evenodd;stroke:none;stroke-width:1px;stroke-linecap:butt;stroke-linejoin:miter;stroke-opacity:1"
       d="m 194.73214,835.66573 c -4.15072,-7.30658 -8.84825,-11.21355 -16.60714,-13.57143 -8.27289,-1.15912 -15.74713,-1.38613 -23.57143,2.41071 -8.90935,5.29383 -10.09126,8.96924 -12.58929,13.57144 -1.54852,4.98627 -3.86863,10.78531 -0.98214,21.60714 l 6.25,12.85714 -5.35714,28.66067 8.21428,13.2143 14.01786,3.8393 68.75,-0.2678 17.58929,-13.6608 0.80357,-21.96424 -15.80357,-11.60714 2.67857,-16.33929 -13.57143,-13.75 -19.28571,-4.375 z"
       id="path4140"
       inkscape:connector-curvature="0"
       sodipodi:nodetypes="ccccccccccccccccc" />
    <path
       id="path4137-8"
       d="m 75.836881,828.28983 c 12.657191,0 22.966355,10.21908 23.116845,22.83104 -0.0603,0.4667 -0.10549,0.93305 -0.1204,1.41466 l -0.19577,5.6588 5.357824,1.8662 c 6.20085,2.1595 10.36959,7.9766 10.36959,14.46303 0,8.5034 -6.90809,15.4112 -15.411244,15.4112 l -77.056178,0 c -8.495684,0 -15.4112279,-6.908 -15.4112279,-15.4112 0,-8.41303 6.7876839,-15.27593 15.1704369,-15.41123 0.361198,0.053 0.737572,0.098 1.113699,0.1203 l 5.85459,0.3839 1.926398,-5.531 c 2.167212,-6.21549 7.976521,-10.38447 14.462969,-10.38447 0.752501,0 1.580376,0.0903 2.694063,0.28607 l 5.39539,0.97066 2.686362,-4.77845 c 4.123715,-7.32924 11.799236,-11.88951 20.046653,-11.88951 m 0,-7.70563 c -11.543504,0 -21.483992,6.42649 -26.766427,15.81771 -1.316945,-0.23334 -2.663982,-0.40648 -4.056041,-0.40648 -10.098699,0 -18.594383,6.51679 -21.739711,15.54681 -0.458977,-0.0306 -0.903013,-0.13551 -1.377154,-0.13551 -12.7624219,0 -23.1168532,10.3544 -23.1168532,23.11683 0,12.7624 10.3544313,23.1168 23.1168532,23.1168 l 77.056178,0 c 12.762434,0 23.116834,-10.3544 23.116834,-23.1168 0,-10.09863 -6.51676,-18.60183 -15.54678,-21.74743 0.0152,-0.4665 0.13557,-0.90282 0.13557,-1.3694 0,-17.02152 -13.800761,-30.82253 -30.822469,-30.82253 l 0,0 z"
       inkscape:connector-curvature="0" />
    <path
       inkscape:connector-curvature="0"
       style="fill:#000000"
       d="m -131.1481,875.87723 -11.72656,23.44922 -11.72461,23.44721 15.54492,7.791 c 8.54967,4.2845 15.57348,7.7928 15.60742,7.8028 0.0339,0.01 7.08326,-3.4973 15.66602,-7.7891 l 15.60547,-7.8047 15.60547,7.8047 15.60546,7.8027 15.60548,-7.8027 15.60547,-7.8027 -6.52149,-13.0469 c -3.58669,-7.1749 -6.57738,-13.04489 -6.64648,-13.04489 -0.0691,0 -1.10017,1.89363 -2.29297,4.20703 l -2.16992,4.20506 3.55078,7.0859 3.55078,7.084 -8.9043,4.4492 c -4.89743,2.4476 -8.94132,4.4161 -8.98438,4.3731 -0.0431,-0.043 -1.41746,-6.8008 -3.05468,-15.0176 l -2.97657,-14.93943 0.53907,-0.57422 0.53711,-0.57226 -1.86524,-3.72266 -1.86523,-3.72265 -0.99024,0.99023 -0.99023,0.99024 -11.66797,-7.78321 -11.66992,-7.78125 -11.66797,7.78125 -11.66602,7.78125 -7.82031,-7.82031 -7.81836,-7.82031 z m 34.94727,12.27343 c 0.0686,0 0.125,6.25434 0.125,13.8984 l 0,13.8984 -10.72852,5.3633 c -5.90033,2.9507 -10.79562,5.3652 -10.87891,5.3652 -0.0833,0 -0.0939,-0.3011 -0.0234,-0.6699 0.0704,-0.3688 1.3175,-6.6393 2.77149,-13.9355 l 2.64258,-13.26755 7.98437,-5.32617 c 4.39067,-2.92981 8.03886,-5.32618 8.10742,-5.32618 z m 8.04882,0 c 0.0674,0 3.6929,2.37767 8.05469,5.28516 5.27413,3.5156 7.97068,5.45532 8.05078,5.79102 0.13301,0.5575 5.47461,27.27502 5.47461,27.38272 0,0.199 -1.23757,-0.3965 -11.0332,-5.3105 l -10.66797,-5.3516 0,-13.8984 c 0,-7.64406 0.0537,-13.8984 0.12109,-13.8984 z m -40.92773,1.22852 c 0.0577,-0.0612 2.0929,1.87805 4.52344,4.30859 l 4.41992,4.41993 -3.00195,15.01556 c -1.65086,8.2591 -3.0675,15.012 -3.14844,15.002 -0.0809,-0.01 -4.11423,-2.003 -8.96289,-4.4356 l -8.81641,-4.4238 7.43946,-14.8867 c 4.09226,-8.18808 7.4892,-14.93878 7.54687,-14.99998 z"
       id="path4196-3" />
    <path
       inkscape:connector-curvature="0"
       style="fill:#000000"
       d="m -53.14223,837.03348 c -1.91998,10e-4 -3.84683,0.20209 -5.24806,0.60156 -6.59392,1.87982 -11.68111,6.96568 -13.59375,13.58789 -0.79503,2.75275 -0.79105,7.65483 0.008,10.45703 0.39608,1.38934 3.11072,6.95349 9.60547,19.68945 4.97938,9.76438 9.12269,17.75391 9.20899,17.75391 0.0863,0 4.23156,-7.98953 9.21094,-17.75391 6.474,-12.69527 9.21146,-18.30455 9.60742,-19.68945 0.79353,-2.77551 0.79357,-7.68139 0,-10.45703 -1.88681,-6.59944 -6.96636,-11.68327 -13.58789,-13.5957 -1.37643,-0.39767 -3.29097,-0.59505 -5.21093,-0.59375 z m -0.0195,7.75195 c 2.93761,0 5.8754,1.15859 8.19141,3.47461 4.61493,4.61487 4.63184,11.75097 0.0371,16.3457 -1.72696,1.72697 -3.35566,2.65212 -5.60156,3.18164 -4.01495,0.9466 -7.84951,-0.17762 -10.85352,-3.18164 -4.59474,-4.59473 -4.57777,-11.73083 0.0371,-16.3457 2.31601,-2.31602 5.25185,-3.47461 8.18945,-3.47461 z"
       id="path4188-6" />
    <path
       id="path4258"
       d="m -133.22809,967.82967 c 20.86194,0 37.759698,16.9072 37.759698,37.75973 0,1.8346 -0.285853,3.5954 -0.543976,5.356 1.705381,-0.3874 3.447933,-0.6361 5.263938,-0.6361 13.035358,0 23.599815,10.5648 23.599815,23.5999 0,13.035 -10.564752,23.5998 -23.599815,23.5998 -8.591807,0 -16.0405,-4.6462 -20.17047,-11.5141 -3.10662,9.4031 -11.86451,16.234 -22.30919,16.234 -10.43555,0 -19.19344,-6.8309 -22.3092,-16.234 -4.12997,6.8679 -11.56952,11.5141 -20.17047,11.5141 -13.03536,0 -23.59982,-10.5648 -23.59982,-23.5998 0,-13.0351 10.56476,-23.5999 23.59982,-23.5999 1.816,0 3.55856,0.249 5.25479,0.6361 -0.24898,-1.7609 -0.53483,-3.5217 -0.53483,-5.356 0,-20.85253 16.90691,-37.75973 37.75971,-37.75973 m 0,-9.43994 c -24.54027,0 -44.7659,18.8247 -46.99697,42.79327 -16.08652,2.203 -28.52244,16.0405 -28.52244,32.7262 0,18.2161 14.82363,33.0397 33.03974,33.0397 6.74807,0 13.14598,-2.0281 18.50196,-5.6879 6.09347,6.4991 14.68528,10.4079 23.97771,10.4079 9.30157,0 17.89337,-3.9088 23.9777,-10.4079 5.36542,3.6598 11.753888,5.6879 18.50196,5.6879 18.216107,0 33.039741,-14.8236 33.039741,-33.0397 0,-16.686 -12.435922,-30.5232 -28.522736,-32.7265 -2.230772,-23.96827 -22.456695,-42.79297 -46.996665,-42.79297 l 0,0 z"
       inkscape:connector-curvature="0" />
    <path
       style="fill:#d44577;fill-opacity:1;stroke:none;stroke-opacity:1;stroke-width:5.2;stroke-miterlimit:4;stroke-dasharray:none"
       d="M 36.71875 15.345703 C 34.448502 15.346523 32.170541 15.586244 30.513672 16.058594 C 22.716756 18.281344 16.701024 24.29466 14.439453 32.125 C 13.499378 35.37998 13.504547 41.176784 14.449219 44.490234 C 14.91756 46.133074 18.126983 52.711934 25.806641 67.771484 C 31.694454 79.317024 36.595217 88.763672 36.697266 88.763672 C 36.799362 88.763672 41.700069 79.317024 47.587891 67.771484 C 55.243005 52.760054 58.47907 46.127794 58.947266 44.490234 C 59.885576 41.208344 59.885622 35.40706 58.947266 32.125 C 56.71624 24.32157 50.710422 18.310148 42.880859 16.048828 C 41.253307 15.578628 38.988988 15.344163 36.71875 15.345703 z M 36.724609 26.048828 C 39.716912 26.063928 42.710983 27.325181 45.199219 29.832031 C 50.413491 35.085261 50.226861 42.159694 44.703125 47.308594 C 42.338638 49.512634 39.904535 50.444054 36.449219 50.433594 C 35.033746 50.428594 34.232101 50.305161 33.210938 49.957031 C 29.221076 48.596841 25.934572 45.152216 24.818359 41.191406 C 24.754369 40.964356 24.562779 39.430351 24.560547 38.400391 C 24.553147 34.984291 25.675282 32.331511 28.263672 29.744141 C 30.742565 27.266231 33.732307 26.033698 36.724609 26.048828 z "
       transform="translate(0,924.36216)"
       id="path4188" />
    <path
       style="color:#000000;font-style:normal;font-variant:normal;font-weight:normal;font-stretch:normal;font-size:medium;line-height:normal;font-family:sans-serif;text-indent:0;text-align:start;text-decoration:none;text-decoration-line:none;text-decoration-style:solid;text-decoration-color:#000000;letter-spacing:normal;word-spacing:normal;text-transform:none;direction:ltr;block-progression:tb;writing-mode:lr-tb;baseline-shift:baseline;text-anchor:start;white-space:normal;clip-rule:nonzero;display:inline;overflow:visible;visibility:visible;opacity:1;isolation:auto;mix-blend-mode:normal;color-interpolation:sRGB;color-interpolation-filters:linearRGB;solid-color:#000000;solid-opacity:1;fill:#222222;fill-opacity:1;fill-rule:nonzero;stroke:none;stroke-width:4.85737753;stroke-linecap:butt;stroke-linejoin:miter;stroke-miterlimit:4;stroke-dasharray:none;stroke-dashoffset:0;stroke-opacity:1;color-rendering:auto;image-rendering:auto;shape-rendering:auto;text-rendering:auto;enable-background:accumulate"
       d="M 78.949219 18.111328 C 72.643199 18.111328 68.9759 19.139179 63.9375 22.542969 L 62.199219 23.716797 L 63.109375 25.607422 C 64.372005 28.233322 64.783062 29.480581 65.101562 31.738281 L 65.671875 35.769531 L 68.949219 33.353516 C 72.351649 30.844216 74.182729 30.441406 78.949219 30.441406 C 89.976109 30.441406 99.437609 39.782212 98.943359 50.320312 C 98.814089 53.076613 98.140754 56.16161 94.458984 60.5 L 90.9375 64.650391 L 96.376953 64.5 C 103.22145 64.311 107.41549 66.098093 110.04102 68.845703 C 112.66655 71.593293 113.88867 75.576418 113.88867 80.330078 C 113.88867 91.403678 104.96821 100.32227 93.894531 100.32227 L 30.369141 100.32227 C 21.361291 100.32227 14.113281 93.071953 14.113281 84.064453 C 14.113281 79.532153 15.955897 75.467578 18.935547 72.517578 L 20.191406 71.271484 L 19.392578 69.693359 C 18.097878 67.135559 16.923525 64.799169 15.921875 62.792969 L 14.558594 60.0625 L 12.203125 62.005859 C 5.8459446 67.249359 1.78125 75.204093 1.78125 84.064453 C 1.78125 99.804153 14.629381 112.6543 30.369141 112.6543 L 93.894531 112.6543 C 111.69882 112.6543 126.21875 98.134278 126.21875 80.330078 C 126.21875 74.624718 125.35061 68.833572 122.37305 64.076172 C 119.80825 59.978272 115.47948 56.947159 109.52734 55.630859 C 109.71842 55.118159 109.89772 54.650734 110.10742 54.052734 C 110.79607 52.088634 111.5542 49.921015 111.44727 47.640625 C 110.62635 30.133025 96.509869 18.111328 78.949219 18.111328 z "
       transform="translate(0,924.36216)"
       id="path4295-1" />
  </g>
</svg>
