<?xml version="1.0" encoding="UTF-8" standalone="no"?>
<!-- Created with Inkscape (http://www.inkscape.org/) -->

<svg
   xmlns:dc="http://purl.org/dc/elements/1.1/"
   xmlns:cc="http://creativecommons.org/ns#"
   xmlns:rdf="http://www.w3.org/1999/02/22-rdf-syntax-ns#"
   xmlns:svg="http://www.w3.org/2000/svg"
   xmlns="http://www.w3.org/2000/svg"
   xmlns:sodipodi="http://sodipodi.sourceforge.net/DTD/sodipodi-0.dtd"
   xmlns:inkscape="http://www.inkscape.org/namespaces/inkscape"
   width="128"
   height="128"
   viewBox="0 0 128 128"
   id="svg2"
   version="1.1"
   inkscape:version="0.91 r13725"
   sodipodi:docname="logo.svg"
   inkscape:export-filename="D:\Websites\travel-forecast\misc\logo-128-white.png"
   inkscape:export-xdpi="90"
   inkscape:export-ydpi="90">
  <defs
     id="defs4" />
  <sodipodi:namedview
     id="base"
     pagecolor="#ffffff"
     bordercolor="#666666"
     borderopacity="1.0"
     inkscape:pageopacity="0.0"
     inkscape:pageshadow="2"
     inkscape:zoom="3.959798"
     inkscape:cx="2.1841289"
     inkscape:cy="40.901686"
     inkscape:document-units="px"
     inkscape:current-layer="layer1"
     showgrid="false"
     units="px"
     showborder="true"
     inkscape:showpageshadow="true"
     inkscape:window-width="2560"
     inkscape:window-height="1377"
     inkscape:window-x="-8"
     inkscape:window-y="-8"
     inkscape:window-maximized="1" />
  <metadata
     id="metadata7">
    <rdf:RDF>
      <cc:Work
         rdf:about="">
        <dc:format>image/svg+xml</dc:format>
        <dc:type
           rdf:resource="http://purl.org/dc/dcmitype/StillImage" />
        <dc:title />
      </cc:Work>
    </rdf:RDF>
  </metadata>
  <g
     inkscape:label="Layer 1"
     inkscape:groupmode="layer"
     id="layer1"
     transform="translate(0,-924.36216)">
    <path
       id="path4137-8"
       d="m 75.836881,828.28983 c 12.657191,0 22.966355,10.21908 23.116845,22.83104 -0.0603,0.4667 -0.10549,0.93305 -0.1204,1.41466 l -0.19577,5.6588 5.357824,1.8662 c 6.20085,2.1595 10.36959,7.9766 10.36959,14.46303 0,8.5034 -6.90809,15.4112 -15.411244,15.4112 l -77.056178,0 c -8.495684,0 -15.4112279,-6.908 -15.4112279,-15.4112 0,-8.41303 6.7876839,-15.27593 15.1704369,-15.41123 0.361198,0.053 0.737572,0.098 1.113699,0.1203 l 5.85459,0.3839 1.926398,-5.531 c 2.167212,-6.21549 7.976521,-10.38447 14.462969,-10.38447 0.752501,0 1.580376,0.0903 2.694063,0.28607 l 5.39539,0.97066 2.686362,-4.77845 c 4.123715,-7.32924 11.799236,-11.88951 20.046653,-11.88951 m 0,-7.70563 c -11.543504,0 -21.483992,6.42649 -26.766427,15.81771 -1.316945,-0.23334 -2.663982,-0.40648 -4.056041,-0.40648 -10.098699,0 -18.594383,6.51679 -21.739711,15.54681 -0.458977,-0.0306 -0.903013,-0.13551 -1.377154,-0.13551 -12.7624219,0 -23.1168532,10.3544 -23.1168532,23.11683 0,12.7624 10.3544313,23.1168 23.1168532,23.1168 l 77.056178,0 c 12.762434,0 23.116834,-10.3544 23.116834,-23.1168 0,-10.09863 -6.51676,-18.60183 -15.54678,-21.74743 0.0152,-0.4665 0.13557,-0.90282 0.13557,-1.3694 0,-17.02152 -13.800761,-30.82253 -30.822469,-30.82253 l 0,0 z"
       inkscape:connector-curvature="0" />
    <path
       inkscape:connector-curvature="0"
       style="fill:#000000"
       d="m -131.1481,875.87723 -11.72656,23.44922 -11.72461,23.44721 15.54492,7.791 c 8.54967,4.2845 15.57348,7.7928 15.60742,7.8028 0.0339,0.01 7.08326,-3.4973 15.66602,-7.7891 l 15.60547,-7.8047 15.60547,7.8047 15.60546,7.8027 15.60548,-7.8027 15.60547,-7.8027 -6.52149,-13.0469 c -3.58669,-7.1749 -6.57738,-13.04489 -6.64648,-13.04489 -0.0691,0 -1.10017,1.89363 -2.29297,4.20703 l -2.16992,4.20506 3.55078,7.0859 3.55078,7.084 -8.9043,4.4492 c -4.89743,2.4476 -8.94132,4.4161 -8.98438,4.3731 -0.0431,-0.043 -1.41746,-6.8008 -3.05468,-15.0176 l -2.97657,-14.93943 0.53907,-0.57422 0.53711,-0.57226 -1.86524,-3.72266 -1.86523,-3.72265 -0.99024,0.99023 -0.99023,0.99024 -11.66797,-7.78321 -11.66992,-7.78125 -11.66797,7.78125 -11.66602,7.78125 -7.82031,-7.82031 -7.81836,-7.82031 z m 34.94727,12.27343 c 0.0686,0 0.125,6.25434 0.125,13.8984 l 0,13.8984 -10.72852,5.3633 c -5.90033,2.9507 -10.79562,5.3652 -10.87891,5.3652 -0.0833,0 -0.0939,-0.3011 -0.0234,-0.6699 0.0704,-0.3688 1.3175,-6.6393 2.77149,-13.9355 l 2.64258,-13.26755 7.98437,-5.32617 c 4.39067,-2.92981 8.03886,-5.32618 8.10742,-5.32618 z m 8.04882,0 c 0.0674,0 3.6929,2.37767 8.05469,5.28516 5.27413,3.5156 7.97068,5.45532 8.05078,5.79102 0.13301,0.5575 5.47461,27.27502 5.47461,27.38272 0,0.199 -1.23757,-0.3965 -11.0332,-5.3105 l -10.66797,-5.3516 0,-13.8984 c 0,-7.64406 0.0537,-13.8984 0.12109,-13.8984 z m -40.92773,1.22852 c 0.0577,-0.0612 2.0929,1.87805 4.52344,4.30859 l 4.41992,4.41993 -3.00195,15.01556 c -1.65086,8.2591 -3.0675,15.012 -3.14844,15.002 -0.0809,-0.01 -4.11423,-2.003 -8.96289,-4.4356 l -8.81641,-4.4238 7.43946,-14.8867 c 4.09226,-8.18808 7.4892,-14.93878 7.54687,-14.99998 z"
       id="path4196-3" />
    <path
       inkscape:connector-curvature="0"
       style="fill:#000000"
       d="m -53.14223,837.03348 c -1.91998,10e-4 -3.84683,0.20209 -5.24806,0.60156 -6.59392,1.87982 -11.68111,6.96568 -13.59375,13.58789 -0.79503,2.75275 -0.79105,7.65483 0.008,10.45703 0.39608,1.38934 3.11072,6.95349 9.60547,19.68945 4.97938,9.76438 9.12269,17.75391 9.20899,17.75391 0.0863,0 4.23156,-7.98953 9.21094,-17.75391 6.474,-12.69527 9.21146,-18.30455 9.60742,-19.68945 0.79353,-2.77551 0.79357,-7.68139 0,-10.45703 -1.88681,-6.59944 -6.96636,-11.68327 -13.58789,-13.5957 -1.37643,-0.39767 -3.29097,-0.59505 -5.21093,-0.59375 z m -0.0195,7.75195 c 2.93761,0 5.8754,1.15859 8.19141,3.47461 4.61493,4.61487 4.63184,11.75097 0.0371,16.3457 -1.72696,1.72697 -3.35566,2.65212 -5.60156,3.18164 -4.01495,0.9466 -7.84951,-0.17762 -10.85352,-3.18164 -4.59474,-4.59473 -4.57777,-11.73083 0.0371,-16.3457 2.31601,-2.31602 5.25185,-3.47461 8.18945,-3.47461 z"
       id="path4188-6" />
    <path
       id="path4258"
       d="m -133.22809,967.82967 c 20.86194,0 37.759698,16.9072 37.759698,37.75973 0,1.8346 -0.285853,3.5954 -0.543976,5.356 1.705381,-0.3874 3.447933,-0.6361 5.263938,-0.6361 13.035358,0 23.599815,10.5648 23.599815,23.5999 0,13.035 -10.564752,23.5998 -23.599815,23.5998 -8.591807,0 -16.0405,-4.6462 -20.17047,-11.5141 -3.10662,9.4031 -11.86451,16.234 -22.30919,16.234 -10.43555,0 -19.19344,-6.8309 -22.3092,-16.234 -4.12997,6.8679 -11.56952,11.5141 -20.17047,11.5141 -13.03536,0 -23.59982,-10.5648 -23.59982,-23.5998 0,-13.0351 10.56476,-23.5999 23.59982,-23.5999 1.816,0 3.55856,0.249 5.25479,0.6361 -0.24898,-1.7609 -0.53483,-3.5217 -0.53483,-5.356 0,-20.85253 16.90691,-37.75973 37.75971,-37.75973 m 0,-9.43994 c -24.54027,0 -44.7659,18.8247 -46.99697,42.79327 -16.08652,2.203 -28.52244,16.0405 -28.52244,32.7262 0,18.2161 14.82363,33.0397 33.03974,33.0397 6.74807,0 13.14598,-2.0281 18.50196,-5.6879 6.09347,6.4991 14.68528,10.4079 23.97771,10.4079 9.30157,0 17.89337,-3.9088 23.9777,-10.4079 5.36542,3.6598 11.753888,5.6879 18.50196,5.6879 18.216107,0 33.039741,-14.8236 33.039741,-33.0397 0,-16.686 -12.435922,-30.5232 -28.522736,-32.7265 -2.230772,-23.96827 -22.456695,-42.79297 -46.996665,-42.79297 l 0,0 z"
       inkscape:connector-curvature="0" />
    <path
       style="stroke:#ffffff;stroke-width:4.85737753;stroke-miterlimit:4;stroke-dasharray:none;stroke-opacity:1;fill:#ffffff;fill-opacity:1"
       d="m 78.948769,944.90207 c -6.106963,0 -8.819199,0.75072 -13.651423,4.01522 1.313792,2.7323 1.862572,4.3838 2.209542,6.8433 3.716762,-2.7412 6.466027,-3.38461 11.441881,-3.38461 12.385659,0 22.983851,10.39401 22.419831,22.41983 -0.14739,3.1426 -1.0782,6.94853 -5.058501,11.63873 14.624561,-0.40386 20.006321,7.90761 20.006321,18.25696 0,12.3856 -10.03607,22.4217 -22.421728,22.4217 l -63.525388,0 c -10.320327,0 -18.685723,-8.3657 -18.685723,-18.6857 0,-5.1938 2.122092,-9.88814 5.542343,-13.27434 -1.296298,-2.5609 -2.473665,-4.90073 -3.477958,-6.91228 -5.8207895,4.80119 -9.5382948,12.06762 -9.5382948,20.18662 0,14.422 11.7376138,26.1596 26.1596328,26.1596 l 63.525388,0 c 16.487578,0 29.895638,-13.4081 29.895638,-29.8956 0,-10.89683 -3.45925,-21.37712 -17.42526,-22.88808 0.1824,-1.29896 2.79843,-6.64874 2.656,-9.68618 -0.76374,-16.28815 -13.584719,-27.21517 -30.072301,-27.21517 z"
       id="path4295"
       inkscape:connector-curvature="0"
       sodipodi:nodetypes="sccsscssssccsssscss" />
    <path
       style="fill:#ffffff;fill-opacity:1"
       d="m 36.719524,939.70854 c -2.270248,8.2e-4 -4.548636,0.23897 -6.205505,0.71132 -7.796916,2.22275 -13.81222,8.2365 -16.073791,16.06684 -0.940075,3.25498 -0.935372,9.05139 0.0093,12.36484 0.468341,1.64284 3.678238,8.22207 11.357896,23.28162 5.887813,11.54554 10.787013,20.99284 10.889062,20.99284 0.102096,0 5.00357,-9.4473 10.891392,-20.99284 7.655114,-15.01143 10.891989,-21.64406 11.360185,-23.28162 0.93831,-3.28189 0.938356,-9.08278 0,-12.36484 -2.231026,-7.80343 -8.237285,-13.81478 -16.066848,-16.0761 -1.627552,-0.4702 -3.891386,-0.7036 -6.161624,-0.70206 z m -0.0231,9.1662 c 3.473556,0 6.947321,1.36998 9.685855,4.10853 5.456875,5.45682 5.476868,13.89476 0.04393,19.32779 -2.042026,2.04208 -3.967876,3.13598 -6.623516,3.76216 -4.747441,1.11928 -9.281568,-0.21003 -12.833632,-3.76216 -5.432998,-5.43303 -5.412932,-13.87097 0.04393,-19.32779 2.738534,-2.73855 6.209989,-4.10853 9.683525,-4.10853 z"
       id="path4188"
       inkscape:connector-curvature="0" />
    <path
       style="color:#000000;clip-rule:nonzero;display:inline;overflow:visible;visibility:visible;opacity:1;isolation:auto;mix-blend-mode:normal;color-interpolation:sRGB;color-interpolation-filters:linearRGB;solid-color:#000000;solid-opacity:1;fill:none;fill-opacity:1;fill-rule:nonzero;stroke:#ffffff;stroke-width:2.91442633;stroke-linecap:round;stroke-linejoin:round;stroke-miterlimit:4;stroke-dasharray:none;stroke-dashoffset:0;stroke-opacity:1;color-rendering:auto;image-rendering:auto;shape-rendering:auto;text-rendering:auto;enable-background:accumulate"
       d="m 32.7407,975.69772 c -4.459618,-1.52034 -8.068372,-5.29372 -9.324043,-9.74939 -0.170114,-0.60364 -0.31133,-2.03592 -0.313816,-3.18286 -0.0082,-3.76164 1.322973,-6.88464 4.130746,-9.69131 5.466593,-5.46443 13.52344,-5.4248 19.000777,0.0935 5.714641,5.75734 5.489475,13.94947 -0.53783,19.56777 -2.599308,2.42292 -5.507419,3.52846 -9.251842,3.51713 -1.512178,-0.005 -2.542786,-0.15894 -3.703992,-0.55481 z"
       id="path4313"
       inkscape:connector-curvature="0" />
  </g>
</svg>
