<?xml version="1.0" encoding="UTF-8" standalone="no"?>
<!-- Created with Inkscape (http://www.inkscape.org/) -->

<svg
   xmlns:dc="http://purl.org/dc/elements/1.1/"
   xmlns:cc="http://creativecommons.org/ns#"
   xmlns:rdf="http://www.w3.org/1999/02/22-rdf-syntax-ns#"
   xmlns:svg="http://www.w3.org/2000/svg"
   xmlns="http://www.w3.org/2000/svg"
   xmlns:sodipodi="http://sodipodi.sourceforge.net/DTD/sodipodi-0.dtd"
   xmlns:inkscape="http://www.inkscape.org/namespaces/inkscape"
   width="128"
   height="128"
   viewBox="0 0 128 128"
   id="svg2"
   version="1.1"
   inkscape:version="0.91 r13725"
   sodipodi:docname="logo.svg">
  <defs
     id="defs4" />
  <sodipodi:namedview
     id="base"
     pagecolor="#ffffff"
     bordercolor="#666666"
     borderopacity="1.0"
     inkscape:pageopacity="0.0"
     inkscape:pageshadow="2"
     inkscape:zoom="3.959798"
     inkscape:cx="77.693031"
     inkscape:cy="40.901686"
     inkscape:document-units="px"
     inkscape:current-layer="layer1"
     showgrid="false"
     units="px"
     showborder="true"
     inkscape:showpageshadow="true"
     inkscape:window-width="2560"
     inkscape:window-height="1377"
     inkscape:window-x="-8"
     inkscape:window-y="-8"
     inkscape:window-maximized="1" />
  <metadata
     id="metadata7">
    <rdf:RDF>
      <cc:Work
         rdf:about="">
        <dc:format>image/svg+xml</dc:format>
        <dc:type
           rdf:resource="http://purl.org/dc/dcmitype/StillImage" />
        <dc:title></dc:title>
      </cc:Work>
    </rdf:RDF>
  </metadata>
  <g
     inkscape:label="Layer 1"
     inkscape:groupmode="layer"
     id="layer1"
     transform="translate(0,-924.36216)">
    <path
       id="path4137-8"
       d="m 75.836881,828.28983 c 12.657191,0 22.966355,10.21908 23.116845,22.83104 -0.0603,0.4667 -0.10549,0.93305 -0.1204,1.41466 l -0.19577,5.6588 5.357824,1.8662 c 6.20085,2.1595 10.36959,7.9766 10.36959,14.46303 0,8.5034 -6.90809,15.4112 -15.411244,15.4112 l -77.056178,0 c -8.495684,0 -15.4112279,-6.908 -15.4112279,-15.4112 0,-8.41303 6.7876839,-15.27593 15.1704369,-15.41123 0.361198,0.053 0.737572,0.098 1.113699,0.1203 l 5.85459,0.3839 1.926398,-5.531 c 2.167212,-6.21549 7.976521,-10.38447 14.462969,-10.38447 0.752501,0 1.580376,0.0903 2.694063,0.28607 l 5.39539,0.97066 2.686362,-4.77845 c 4.123715,-7.32924 11.799236,-11.88951 20.046653,-11.88951 m 0,-7.70563 c -11.543504,0 -21.483992,6.42649 -26.766427,15.81771 -1.316945,-0.23334 -2.663982,-0.40648 -4.056041,-0.40648 -10.098699,0 -18.594383,6.51679 -21.739711,15.54681 -0.458977,-0.0306 -0.903013,-0.13551 -1.377154,-0.13551 -12.7624219,0 -23.1168532,10.3544 -23.1168532,23.11683 0,12.7624 10.3544313,23.1168 23.1168532,23.1168 l 77.056178,0 c 12.762434,0 23.116834,-10.3544 23.116834,-23.1168 0,-10.09863 -6.51676,-18.60183 -15.54678,-21.74743 0.0152,-0.4665 0.13557,-0.90282 0.13557,-1.3694 0,-17.02152 -13.800761,-30.82253 -30.822469,-30.82253 l 0,0 z"
       inkscape:connector-curvature="0" />
    <path
       inkscape:connector-curvature="0"
       style="fill:#000000"
       d="m -131.1481,875.87723 -11.72656,23.44922 -11.72461,23.44721 15.54492,7.791 c 8.54967,4.2845 15.57348,7.7928 15.60742,7.8028 0.0339,0.01 7.08326,-3.4973 15.66602,-7.7891 l 15.60547,-7.8047 15.60547,7.8047 15.60546,7.8027 15.60548,-7.8027 15.60547,-7.8027 -6.52149,-13.0469 c -3.58669,-7.1749 -6.57738,-13.04489 -6.64648,-13.04489 -0.0691,0 -1.10017,1.89363 -2.29297,4.20703 l -2.16992,4.20506 3.55078,7.0859 3.55078,7.084 -8.9043,4.4492 c -4.89743,2.4476 -8.94132,4.4161 -8.98438,4.3731 -0.0431,-0.043 -1.41746,-6.8008 -3.05468,-15.0176 l -2.97657,-14.93943 0.53907,-0.57422 0.53711,-0.57226 -1.86524,-3.72266 -1.86523,-3.72265 -0.99024,0.99023 -0.99023,0.99024 -11.66797,-7.78321 -11.66992,-7.78125 -11.66797,7.78125 -11.66602,7.78125 -7.82031,-7.82031 -7.81836,-7.82031 z m 34.94727,12.27343 c 0.0686,0 0.125,6.25434 0.125,13.8984 l 0,13.8984 -10.72852,5.3633 c -5.90033,2.9507 -10.79562,5.3652 -10.87891,5.3652 -0.0833,0 -0.0939,-0.3011 -0.0234,-0.6699 0.0704,-0.3688 1.3175,-6.6393 2.77149,-13.9355 l 2.64258,-13.26755 7.98437,-5.32617 c 4.39067,-2.92981 8.03886,-5.32618 8.10742,-5.32618 z m 8.04882,0 c 0.0674,0 3.6929,2.37767 8.05469,5.28516 5.27413,3.5156 7.97068,5.45532 8.05078,5.79102 0.13301,0.5575 5.47461,27.27502 5.47461,27.38272 0,0.199 -1.23757,-0.3965 -11.0332,-5.3105 l -10.66797,-5.3516 0,-13.8984 c 0,-7.64406 0.0537,-13.8984 0.12109,-13.8984 z m -40.92773,1.22852 c 0.0577,-0.0612 2.0929,1.87805 4.52344,4.30859 l 4.41992,4.41993 -3.00195,15.01556 c -1.65086,8.2591 -3.0675,15.012 -3.14844,15.002 -0.0809,-0.01 -4.11423,-2.003 -8.96289,-4.4356 l -8.81641,-4.4238 7.43946,-14.8867 c 4.09226,-8.18808 7.4892,-14.93878 7.54687,-14.99998 z"
       id="path4196-3" />
    <path
       inkscape:connector-curvature="0"
       style="fill:#000000"
       d="m -53.14223,837.03348 c -1.91998,10e-4 -3.84683,0.20209 -5.24806,0.60156 -6.59392,1.87982 -11.68111,6.96568 -13.59375,13.58789 -0.79503,2.75275 -0.79105,7.65483 0.008,10.45703 0.39608,1.38934 3.11072,6.95349 9.60547,19.68945 4.97938,9.76438 9.12269,17.75391 9.20899,17.75391 0.0863,0 4.23156,-7.98953 9.21094,-17.75391 6.474,-12.69527 9.21146,-18.30455 9.60742,-19.68945 0.79353,-2.77551 0.79357,-7.68139 0,-10.45703 -1.88681,-6.59944 -6.96636,-11.68327 -13.58789,-13.5957 -1.37643,-0.39767 -3.29097,-0.59505 -5.21093,-0.59375 z m -0.0195,7.75195 c 2.93761,0 5.8754,1.15859 8.19141,3.47461 4.61493,4.61487 4.63184,11.75097 0.0371,16.3457 -1.72696,1.72697 -3.35566,2.65212 -5.60156,3.18164 -4.01495,0.9466 -7.84951,-0.17762 -10.85352,-3.18164 -4.59474,-4.59473 -4.57777,-11.73083 0.0371,-16.3457 2.31601,-2.31602 5.25185,-3.47461 8.18945,-3.47461 z"
       id="path4188-6" />
    <path
       id="path4258"
       d="m -133.22809,967.82967 c 20.86194,0 37.759698,16.9072 37.759698,37.75973 0,1.8346 -0.285853,3.5954 -0.543976,5.356 1.705381,-0.3874 3.447933,-0.6361 5.263938,-0.6361 13.035358,0 23.599815,10.5648 23.599815,23.5999 0,13.035 -10.564752,23.5998 -23.599815,23.5998 -8.591807,0 -16.0405,-4.6462 -20.17047,-11.5141 -3.10662,9.4031 -11.86451,16.234 -22.30919,16.234 -10.43555,0 -19.19344,-6.8309 -22.3092,-16.234 -4.12997,6.8679 -11.56952,11.5141 -20.17047,11.5141 -13.03536,0 -23.59982,-10.5648 -23.59982,-23.5998 0,-13.0351 10.56476,-23.5999 23.59982,-23.5999 1.816,0 3.55856,0.249 5.25479,0.6361 -0.24898,-1.7609 -0.53483,-3.5217 -0.53483,-5.356 0,-20.85253 16.90691,-37.75973 37.75971,-37.75973 m 0,-9.43994 c -24.54027,0 -44.7659,18.8247 -46.99697,42.79327 -16.08652,2.203 -28.52244,16.0405 -28.52244,32.7262 0,18.2161 14.82363,33.0397 33.03974,33.0397 6.74807,0 13.14598,-2.0281 18.50196,-5.6879 6.09347,6.4991 14.68528,10.4079 23.97771,10.4079 9.30157,0 17.89337,-3.9088 23.9777,-10.4079 5.36542,3.6598 11.753888,5.6879 18.50196,5.6879 18.216107,0 33.039741,-14.8236 33.039741,-33.0397 0,-16.686 -12.435922,-30.5232 -28.522736,-32.7265 -2.230772,-23.96827 -22.456695,-42.79297 -46.996665,-42.79297 l 0,0 z"
       inkscape:connector-curvature="0" />
    <g
       id="g4315"
       transform="matrix(0.97147546,0,0,0.97147546,1.194682,28.733497)">
      <path
         sodipodi:nodetypes="sccsscssssccsssscss"
         inkscape:connector-curvature="0"
         id="path4295"
         transform="translate(0,924.36216)"
         d="m 80.037109,18.707031 c -6.286276,0 -9.078149,0.772756 -14.052257,4.133109 1.352367,2.812529 1.917261,4.512521 2.274418,7.044238 3.825894,-2.821683 6.655883,-3.483987 11.777839,-3.483987 12.749327,0 23.658701,10.699195 23.078121,23.078125 -0.15172,3.23487 -1.10986,7.152548 -5.207027,11.980468 15.053967,-0.415723 20.593747,8.139789 20.593747,18.792969 0,12.7493 -10.33075,23.080077 -23.080075,23.080077 l -65.390625,0 c -10.623354,0 -19.234375,-8.611274 -19.234375,-19.234374 0,-5.3463 2.184401,-10.178432 5.705078,-13.664062 -1.33436,-2.63609 -2.546297,-5.044625 -3.580078,-7.115235 -5.9917005,4.94216 -9.8183594,12.421997 -9.8183594,20.779297 0,14.8455 12.0822544,26.927734 26.9277344,26.927734 l 65.390625,0 c 16.971685,0 30.773435,-13.801737 30.773435,-30.773437 0,-11.21674 -3.56082,-22.004752 -17.9369,-23.56007 0.18776,-1.3371 2.8806,-6.843967 2.73399,-9.970587 C 110.20623,29.95489 97.0088,18.707031 80.037109,18.707031 Z"
         style="stroke:#000000;stroke-width:5;stroke-miterlimit:4;stroke-dasharray:none;stroke-opacity:1" />
      <path
         inkscape:connector-curvature="0"
         id="path4188"
         d="m 36.567925,937.72317 c -2.336907,8.4e-4 -4.682193,0.24598 -6.387711,0.7322 -8.02585,2.28802 -14.217776,8.47834 -16.545751,16.5386 -0.967678,3.35055 -0.962837,9.31715 0.0096,12.72789 0.482092,1.69108 3.786238,8.46349 11.691387,23.96522 6.060691,11.88452 11.103742,21.60922 11.208788,21.60922 0.105093,0 5.150485,-9.7247 11.211185,-21.60922 7.879885,-15.4522 11.211801,-22.27957 11.693744,-23.96522 0.965861,-3.37825 0.965908,-9.34947 0,-12.72789 -2.296533,-8.03256 -8.479149,-14.22041 -16.538604,-16.54813 -1.67534,-0.48401 -4.005645,-0.72426 -6.342542,-0.72267 z m -0.02378,9.43533 c 3.575547,0 7.151309,1.41021 9.970252,4.22917 5.6171,5.61704 5.63768,14.30274 0.04522,19.89529 -2.101984,2.10204 -4.084381,3.22806 -6.817997,3.87263 -4.886835,1.15214 -9.554094,-0.2162 -13.210454,-3.87263 -5.592522,-5.59255 -5.571867,-14.27825 0.04522,-19.89529 2.818943,-2.81896 6.392327,-4.22917 9.967854,-4.22917 z"
         style="fill:#000000" />
      <path
         transform="translate(0,924.36216)"
         inkscape:connector-curvature="0"
         id="path4313"
         d="m 32.472275,50.406906 c -4.590562,-1.564984 -8.305276,-5.449157 -9.597817,-10.035656 -0.175108,-0.621359 -0.320471,-2.095701 -0.32303,-3.276317 -0.0084,-3.872086 1.361818,-7.086789 4.252033,-9.975864 5.627104,-5.624882 13.920517,-5.584086 19.55868,0.09621 5.882434,5.926393 5.650657,14.359055 -0.553622,20.142322 -2.675629,2.494066 -5.669128,3.632061 -9.523495,3.620408 -1.556579,-0.0047 -2.617448,-0.163611 -3.812749,-0.571104 z"
         style="color:#000000;clip-rule:nonzero;display:inline;overflow:visible;visibility:visible;opacity:1;isolation:auto;mix-blend-mode:normal;color-interpolation:sRGB;color-interpolation-filters:linearRGB;solid-color:#000000;solid-opacity:1;fill:none;fill-opacity:1;fill-rule:nonzero;stroke:#000000;stroke-width:3;stroke-linecap:round;stroke-linejoin:round;stroke-miterlimit:4;stroke-dasharray:none;stroke-dashoffset:0;stroke-opacity:1;color-rendering:auto;image-rendering:auto;shape-rendering:auto;text-rendering:auto;enable-background:accumulate" />
    </g>
  </g>
</svg>
